<svg xmlns="http://www.w3.org/2000/svg" width="41.859" height="41.859" viewBox="0 0 41.859 41.859">
    <defs>
        <style>
            .cls-1{fill:#ff8900}
        </style>
    </defs>
    <g id="noun_job_4193099" transform="translate(-2 -2)">
        <g id="Group_6168" data-name="Group 6168" transform="translate(2 2)">
            <path id="Path_13377" data-name="Path 13377" class="cls-1" d="M17.159 28.909a5.98 5.98 0 0 1 11.541 0h13.664a7.325 7.325 0 0 0 1.495-4.485v-8.97a7.475 7.475 0 0 0-7.475-7.474h-4.635A7.475 7.475 0 0 0 24.424 2h-2.99a7.475 7.475 0 0 0-7.326 5.981H9.475A7.475 7.475 0 0 0 2 15.455v8.97a7.325 7.325 0 0 0 1.5 4.484zM21.434 4.99h2.99a4.485 4.485 0 0 1 4.216 2.99H17.219a4.485 4.485 0 0 1 4.216-2.99z" transform="translate(-2 -2)"/>
            <path id="Path_13378" data-name="Path 13378" class="cls-1" d="M27.71 22a5.98 5.98 0 0 1-11.541 0H4v4.485a7.475 7.475 0 0 0 7.475 7.475H32.4a7.475 7.475 0 0 0 7.475-7.475V22z" transform="translate(-1.01 7.899)"/>
            <ellipse id="Ellipse_582" data-name="Ellipse 582" class="cls-1" cx="2.822" cy="3.387" rx="2.822" ry="3.387" transform="translate(18.062 24.926)"/>
        </g>
    </g>
</svg>
