<svg xmlns="http://www.w3.org/2000/svg" width="40.523" height="41.252" viewBox="0 0 40.523 41.252">
    <path data-name="Path 13376" d="M41.433 19.255v-4.869a5.516 5.516 0 0 0-5.516-5.516H15.106a5.516 5.516 0 0 0-5.516 5.516V39.71a5.516 5.516 0 0 0 5.516 5.516H31.7v2.382a2.507 2.507 0 0 0 3.806 2.146l3.876-2.347 3.891 2.352a2.507 2.507 0 0 0 3.806-2.146V37.228a10.7 10.7 0 0 0-5.647-17.973zM27.041 37.078H15.633a1.5 1.5 0 0 1 0-3.009h11.408a1.5 1.5 0 0 1 0 3.009zm-12.913-10.03a1.5 1.5 0 0 1 1.5-1.5h9.4a1.5 1.5 0 1 1 0 3.009h-9.4a1.5 1.5 0 0 1-1.5-1.509zm15.42-7.021H15.633a1.5 1.5 0 1 1 0-3.009h13.916a1.5 1.5 0 0 1 0 3.009zm14.543 26.694-3.906-2.362a1.5 1.5 0 0 0-1.555 0l-3.906 2.362V39.4a10.591 10.591 0 0 0 9.372 0zm.722-11.454a1.5 1.5 0 0 0-.411.371 7.678 7.678 0 0 1-9.994 0 1.5 1.5 0 0 0-.408-.371 7.708 7.708 0 0 1 5.386-13.2h.03a1.409 1.409 0 0 0 .847.05 7.7 7.7 0 0 1 4.513 13.149z" transform="translate(-9.59 -8.87)" style="fill:#3dd872"/>
</svg>
