<svg xmlns="http://www.w3.org/2000/svg" width="55" height="55" viewBox="0 0 55 55">
    <defs>
        <clipPath id="a">
            <circle data-name="Ellipse 581" cx="27.5" cy="27.5" r="27.5" transform="translate(520 1091)" style="fill:#fff"/>
        </clipPath>
    </defs>
    <g data-name="Mask Group 80" transform="translate(-520 -1091)" style="clip-path:url(#a)">
        <path data-name="Path 13375" d="M284.531 147.827c3.377-.115 5.111-1.392 5-3.914l2.4-28.412c4.415-.446 6.4-1.849 6.925-6l1.621-12.711c1.14-8.729-9.6-7.7-14.7-7.7v3.333h-1.327l1.324 20.573-3.275 2.9-3.16-2.9 1.324-20.573h-1.324v-3.339c-5.1 0-15.838-1.015-14.7 7.7l1.621 12.711c.525 4.142 2.5 5.546 6.869 5.991l2.34 28.389c-.137 2.328.879 3.926 4.233 3.948zm-1.872-80.777a9.825 9.825 0 1 1-9.824 9.825 9.819 9.819 0 0 1 9.824-9.825z" transform="translate(264.615 1023.746)" style="fill:#ffda0b;fill-rule:evenodd"/>
    </g>
</svg>
