<svg id="noun_online_learning_3327429" data-name="noun_online learning_3327429" xmlns="http://www.w3.org/2000/svg" width="50.893" height="36.853" viewBox="0 0 50.893 36.853">
    <defs>
        <style>
            .cls-1{fill:#4360fd}
        </style>
    </defs>
    <path id="Path_13373" data-name="Path 13373" class="cls-1" d="M53.015 45H34.589a.877.877 0 0 0-.877.877v.877h-10.53v-.877A.877.877 0 0 0 22.3 45H3.877a.877.877 0 0 0-.877.877v3.51a2.632 2.632 0 0 0 2.632 2.633H51.26a2.632 2.632 0 0 0 2.632-2.632v-3.51a.877.877 0 0 0-.877-.878z" transform="translate(-3 -15.166)"/>
    <path id="Path_13374" data-name="Path 13374" class="cls-1" d="M46.486 11h-35.1A4.387 4.387 0 0 0 7 15.387v23.692h43.873V15.387A4.387 4.387 0 0 0 46.486 11zM34.2 22.407h7.02v1.755H34.2zm-9.652-7.02a6.142 6.142 0 1 1-6.142 6.142 6.142 6.142 0 0 1 6.143-6.142zM13.142 37.324a7.9 7.9 0 0 1 7.9-7.9h7.02a7.9 7.9 0 0 1 7.9 7.9zm31.589-9.652H34.2v-1.755h10.53zm0-7.02H34.2V18.9h10.53z" transform="translate(-3.49 -11)"/>
</svg>
